<svg xmlns="http://www.w3.org/2000/svg" viewBox="0 0 159.67 215.9"><defs><style>.cls-1{fill:#fff;}.cls-2{fill:#ca995d;}</style></defs><title>Asset 3</title><g id="Layer_2" data-name="Layer 2"><g id="Layer_1-2" data-name="Layer 1"><path class="cls-1" d="M45.44,86.81V43.1h2.89V86.81a10.45,10.45,0,0,0,1.83,2.48,9.82,9.82,0,0,0,13.77,0,9.25,9.25,0,0,0,2.91-6.86V43.1h2.89V82.63A12.1,12.1,0,0,1,66,91.25a12.73,12.73,0,0,1-18,0A11.16,11.16,0,0,1,46.89,90a11.2,11.2,0,0,1-1.19,1.32,12.28,12.28,0,0,1-9,3.7,12.16,12.16,0,0,1-9-3.73A12,12,0,0,1,24,82.63V43.1h2.89V82.38a9.25,9.25,0,0,0,2.91,6.86,9.82,9.82,0,0,0,13.77,0A10.47,10.47,0,0,0,45.44,86.81Z"/><path class="cls-1" d="M82.12,43.1V94.53H79.23V43.1Z"/><path class="cls-1" d="M135.44,88.13a24.46,24.46,0,0,1-17.52,7A26.28,26.28,0,0,1,91.6,68.81a26.31,26.31,0,0,1,26.33-26.32,25.45,25.45,0,0,1,17.71,6.85l-2.19,2A23.38,23.38,0,0,0,94.56,68.81a23.4,23.4,0,0,0,38,18.29V71.42h2.89Z"/><path class="cls-2" d="M91.75,166.68a11.69,11.69,0,0,1,3.85-.6,29.59,29.59,0,0,1,4.29.32,33.26,33.26,0,0,1,4.55,1,36.07,36.07,0,0,1,4.78,1.79,20.5,20.5,0,0,1,4.29,2.6q4.25,3.38,4.25,8,0,5.48-5.8,12-8.3,9.35-23.77,16.66A83.13,83.13,0,0,1,68.66,215a50.94,50.94,0,0,1-9.44.91,22.5,22.5,0,0,1-7.91-1.25,17.08,17.08,0,0,1-5.41-3.11,11.83,11.83,0,0,1-3-4A11.08,11.08,0,0,1,41.9,203a14.11,14.11,0,0,1,1.42-5.59A35.72,35.72,0,0,1,47,191.06a58.26,58.26,0,0,1,5.1-6.12q2.83-3,5.64-5.5A99,99,0,0,1,67.09,172q4.48-3.11,7.58-4.9t5.17-2.74a16.84,16.84,0,0,1,4.29-1.65,4.14,4.14,0,0,1,1.74.46q1,.46,2.13,1.09A23.34,23.34,0,0,1,91.75,166.68ZM59,205.57q.63,0,2.36,0a21,21,0,0,0,5-.88,47.21,47.21,0,0,0,6.68-2.37,68.44,68.44,0,0,0,6.84-3.48q3.43-2,6.56-4.17t5.85-4.45A55.57,55.57,0,0,0,97,185.88q4.29-4.46,4.29-6.79t-2.88-3.55a10.64,10.64,0,0,0-4.15-.81,24.32,24.32,0,0,0-6.08.63A100.72,100.72,0,0,0,68.2,188q-7,5.55-9.95,10.51a9.35,9.35,0,0,0-1.55,4.76A2.14,2.14,0,0,0,59,205.57Z"/><polygon class="cls-1" points="102.07 116.67 159.67 116.67 159.67 18.78 102.07 18.78 102.07 19.7 158.85 19.7 158.85 115.75 102.07 115.75 102.07 116.67"/><polygon class="cls-1" points="57.6 116.67 0 116.67 0 18.78 57.6 18.78 57.6 19.7 0.82 19.7 0.82 115.75 57.6 115.75 57.6 116.67"/><path class="cls-1" d="M84.44,17h-9.2l-3.7,10.18H70L79.85,0l9.88,27.18H88.15Zm-.55-1.49L79.85,4.37,75.79,15.51Z"/><path class="cls-1" d="M69.23,104.84a4.95,4.95,0,0,1,4.95,4.93,5,5,0,0,1-2.11,3.83,6.58,6.58,0,0,1,3.5,2.19,8.83,8.83,0,0,1,2.66,6.46,9.09,9.09,0,0,1-2.66,6.52,8.11,8.11,0,0,1-5.91,2.61v0H64.51V104.84ZM66,106.33v6.79h3.6a3.52,3.52,0,0,0,2.13-.93,3.14,3.14,0,0,0,1-2.42,3.27,3.27,0,0,0-1-2.47,3.49,3.49,0,0,0-2.51-1Zm0,8.38V129.9h3.65v0a7.09,7.09,0,0,0,4.78-2.27,7.48,7.48,0,0,0,2.21-5.4,7.54,7.54,0,0,0-7.54-7.54Z"/><path class="cls-1" d="M88.07,129.94l-3.69,7.69H82.92l4.4-9.23L81,115.1h1.69l5.41,11.69,5.41-11.69h1.68L88.07,130Z"/></g></g></svg>