<svg xmlns="http://www.w3.org/2000/svg" viewBox="0 0 146.01 135.67"><defs><style>.cls-1,.cls-3{fill:#fff;}.cls-2{fill:#ca995e;}.cls-3{stroke:#fff;stroke-miterlimit:10;stroke-width:2px;}</style></defs><title>Asset 2</title><g id="Layer_2" data-name="Layer 2"><g id="Layer_1-2" data-name="Layer 1"><path class="cls-1" d="M55.74,36H36.27L28.43,57.55H25.05L46,0,66.92,57.55H63.58Zm-1.16-3.16L46,9.25,37.43,32.84Z"/><path class="cls-1" d="M94.38,49.11V1.3h3.16V49.11a11.42,11.42,0,0,0,2,2.71,10.74,10.74,0,0,0,15.06-.05,10.12,10.12,0,0,0,3.18-7.51V1.3H121V44.54a13.24,13.24,0,0,1-4,9.42,13.92,13.92,0,0,1-19.65,0A12.2,12.2,0,0,1,96,52.56,12.25,12.25,0,0,1,94.66,54a13.43,13.43,0,0,1-9.81,4A13.94,13.94,0,0,1,71,44.54V1.3h3.16v43a10.11,10.11,0,0,0,3.18,7.51,10.74,10.74,0,0,0,15.06.05A11.44,11.44,0,0,0,94.38,49.11Z"/><path class="cls-1" d="M35,78.79A10.47,10.47,0,0,1,45.51,89.23q0,4.36-4.46,8.12A13.94,13.94,0,0,1,48.47,102a18.69,18.69,0,0,1,5.63,13.68,19.24,19.24,0,0,1-5.62,13.82A17.18,17.18,0,0,1,36,135v0H25.05V78.79ZM28.22,82V96.33h7.63a7.46,7.46,0,0,0,4.5-2,6.65,6.65,0,0,0,2.14-5.13A6.92,6.92,0,0,0,40.35,84,7.37,7.37,0,0,0,35,82Zm0,17.75v32.17H36v0a15,15,0,0,0,10.13-4.82,15.85,15.85,0,0,0,4.68-11.43,16,16,0,0,0-16-16Z"/><path class="cls-2" d="M108.69,86.45a11.69,11.69,0,0,1,3.85-.6,29.59,29.59,0,0,1,4.29.32,33.26,33.26,0,0,1,4.55,1A36.21,36.21,0,0,1,126.16,89a20.52,20.52,0,0,1,4.29,2.6q4.25,3.38,4.25,8,0,5.48-5.8,12-8.3,9.35-23.77,16.66a83.13,83.13,0,0,1-19.55,6.47,50.94,50.94,0,0,1-9.44.91,22.52,22.52,0,0,1-7.91-1.25,17.06,17.06,0,0,1-5.41-3.11,11.83,11.83,0,0,1-3-4,11.08,11.08,0,0,1-.95-4.54,14.11,14.11,0,0,1,1.42-5.59A35.74,35.74,0,0,1,64,110.83a58.36,58.36,0,0,1,5.1-6.12q2.83-3,5.64-5.5A99,99,0,0,1,84,91.78q4.48-3.11,7.58-4.9t5.17-2.74a16.84,16.84,0,0,1,4.29-1.65,4.15,4.15,0,0,1,1.74.46q1,.46,2.13,1.09A23.34,23.34,0,0,1,108.69,86.45ZM76,125.33q.63,0,2.36,0a21,21,0,0,0,5-.88A47.09,47.09,0,0,0,90,122.12a68.44,68.44,0,0,0,6.84-3.48q3.43-2,6.56-4.17t5.85-4.45a55.57,55.57,0,0,0,4.73-4.38q4.29-4.46,4.29-6.79t-2.88-3.55a10.64,10.64,0,0,0-4.15-.81,24.32,24.32,0,0,0-6.08.63,100.75,100.75,0,0,0-20,12.59q-7,5.56-9.95,10.51A9.35,9.35,0,0,0,73.64,123,2.14,2.14,0,0,0,76,125.33Z"/><line class="cls-3" x1="1.01" y1="68.17" x2="145.01" y2="68.66"/><rect class="cls-3" x="72.51" y="-3.59" width="1" height="144" transform="translate(4.34 141.18) rotate(-89.8)"/></g></g></svg>